<svg version="1.1" id="Layer_1" xmlns="http://www.w3.org/2000/svg" xmlns:xlink="http://www.w3.org/1999/xlink" x="0px" y="0px"
	 width="100%" viewBox="0 0 960 960" enable-background="new 0 0 960 960" xml:space="preserve">
<path fill="#fff" opacity="1.000000" stroke="none" 
	d="
M382.468750,597.808777
	C377.860382,588.030090 375.990021,586.140808 374.956024,581.975464 
	C366.939484,549.681946 358.709290,517.440979 350.418243,485.216400 
	C349.053528,479.912231 347.186798,474.725037 345.332428,469.562683 
	C343.713318,465.055359 342.303253,464.706268 338.404724,467.372131 
	C332.484009,471.420746 330.390289,470.810028 327.770294,463.950958 
	C321.868530,448.500244 317.666870,432.605743 315.644165,416.166107 
	C315.419617,414.341187 315.224640,412.530365 313.675873,410.930786 
	C312.996368,411.006226 312.173615,411.013214 311.392609,411.197388 
	C303.879669,412.969055 302.047791,411.559998 302.044861,403.965820 
	C302.040466,392.466766 302.014709,380.967651 302.036072,369.468628 
	C302.050140,361.889435 302.658783,360.955658 310.028168,359.396729 
	C313.691132,358.621826 315.105835,356.776703 315.811798,353.113617 
	C320.366577,329.479340 327.827332,307.010040 343.673767,288.220612 
	C358.662140,270.448547 378.043243,261.337952 401.064331,259.729218 
	C403.652588,259.548401 405.904327,258.781372 408.193390,257.740936 
	C421.295288,251.785873 434.949921,247.649658 449.156219,245.296692 
	C451.431854,244.919769 453.526917,244.795609 455.134460,246.656830 
	C456.906494,248.708542 456.391144,250.958267 455.426453,253.222794 
	C453.678192,257.326691 451.087341,261.070831 449.985931,265.408905 
	C451.556519,267.244354 453.515900,266.544830 455.255646,266.659271 
	C461.400787,267.063416 467.563416,267.249969 473.695374,267.791382 
	C479.105438,268.269012 480.803436,272.051086 477.546661,276.498535 
	C472.134674,283.889130 466.554047,291.159332 460.909058,298.374359 
	C459.078674,300.713837 459.026001,302.637787 459.918152,305.579498 
	C463.293793,316.709991 470.292175,324.386810 480.071014,330.413422 
	C488.701324,335.732208 496.656036,342.148285 504.900940,348.091125 
	C510.455231,352.094635 510.395477,355.644440 504.485077,359.003479 
	C494.138092,364.883972 483.347870,369.482635 471.277893,370.615265 
	C463.054474,371.386932 455.447998,369.235077 447.867554,366.641907 
	C443.455963,365.132751 439.118530,363.400269 434.681641,361.973755 
	C430.931061,360.767883 429.610138,361.985992 430.526825,365.793854 
	C430.988220,367.710449 431.885071,369.553436 432.785553,371.327942 
	C437.630371,380.875214 443.885406,389.516479 450.104797,398.183960 
	C451.766327,400.499512 453.886383,401.149048 456.596497,400.956879 
	C462.110138,400.565918 467.659271,400.879517 472.954071,402.333374 
	C484.791443,405.583740 491.454285,414.129364 495.304504,425.298828 
	C497.408081,431.401306 497.643646,437.712067 497.283539,444.052063 
	C497.119659,446.938202 498.172516,448.723785 500.701599,450.051605 
	C506.010376,452.838837 511.359802,455.592651 516.423218,458.787140 
	C519.610107,460.797791 521.819580,460.124054 524.362671,457.878723 
	C542.968445,441.451752 559.055359,422.869812 572.376221,401.922180 
	C589.379700,375.183441 601.044983,346.312256 606.168823,314.994415 
	C608.938293,298.067413 610.626038,281.003357 609.080566,263.792603 
	C608.901794,261.802032 608.746948,259.800415 608.752014,257.804352 
	C608.759399,254.894272 607.831970,251.532852 611.310608,249.838898 
	C614.665344,248.205307 616.960388,250.528717 619.305542,252.410675 
	C628.337952,259.659058 636.479126,267.871796 642.688538,277.597443 
	C672.358582,324.068665 677.929932,372.544220 652.342651,422.497375 
	C637.909241,450.675079 613.966614,468.892853 585.086914,480.946869 
	C583.857544,481.459961 582.639465,482.014709 581.376648,482.429932 
	C577.840698,483.592560 576.747986,485.510895 578.410706,489.192535 
	C581.806152,496.711426 582.160645,504.649078 580.642883,512.675781 
	C580.289368,514.545471 580.837341,515.894897 582.047363,517.191772 
	C586.821289,522.308411 591.633728,527.391479 596.304932,532.600952 
	C598.588379,535.147522 601.202820,535.115906 604.044678,534.145874 
	C609.559021,532.263672 615.048889,530.309814 620.550171,528.389343 
	C622.109192,527.845093 623.630127,527.055237 625.490051,527.616760 
	C627.166321,530.341003 625.606995,533.134827 625.223206,535.781372 
	C623.004272,551.084045 620.749268,566.381287 616.649780,581.348572 
	C615.320312,586.202271 612.794189,588.210999 607.778259,587.942078 
	C598.849915,587.463318 589.847290,588.689026 580.603882,587.062988 
	C580.301636,581.664490 582.887207,577.191040 583.902527,572.410278 
	C586.159851,561.780579 587.440369,563.263733 576.876343,559.738586 
	C571.164612,557.832581 565.701965,554.640747 559.194397,557.313049 
	C556.886169,558.260925 554.218201,556.778931 552.097168,555.514404 
	C547.325073,552.669373 544.765442,554.286194 542.494751,558.969727 
	C538.937561,566.306702 534.476624,573.209717 531.001953,580.580994 
	C528.450134,585.994568 524.800415,588.245117 518.921448,587.948914 
	C512.937256,587.647339 506.924591,587.958313 500.927612,587.839661 
	C498.269409,587.787109 495.459198,587.615051 494.120911,584.644287 
	C492.873596,581.875488 494.574738,579.884888 496.040741,577.844604 
	C498.859558,573.921753 501.573059,569.919067 504.506256,566.084106 
	C506.377411,563.637695 506.240692,561.842224 503.957642,559.665771 
	C500.345490,556.222290 497.168213,552.325500 493.593719,548.839050 
	C484.782898,540.245178 482.566284,529.436096 482.722748,517.736511 
	C482.748718,515.793701 482.994202,513.580200 479.992950,513.319641 
	C477.611176,513.112915 476.190979,514.074890 475.489441,516.302002 
	C475.189636,517.253662 474.791626,518.174194 474.445862,519.111633 
	C466.147308,541.609863 457.859680,564.112122 449.546387,586.604919 
	C446.817444,593.988586 446.410889,594.251343 438.754547,594.266602 
	C434.421509,594.275208 430.085785,594.350647 425.756073,594.227234 
	C420.584320,594.079773 418.832703,592.067566 419.434967,587.064697 
	C422.395538,562.472046 425.326355,537.875549 428.439575,513.302124 
	C428.890869,509.739807 428.007599,507.892456 424.388397,507.464844 
	C418.274994,506.742493 412.160309,506.017670 406.065155,505.159088 
	C402.027771,504.590393 400.131317,505.934509 400.303406,510.248505 
	C401.252380,534.041626 401.979492,557.844360 403.075500,581.630310 
	C403.286316,586.205078 402.079559,588.124634 397.417236,587.916504 
	C392.593567,587.701172 387.753784,587.846619 382.468750,587.808777 
M616.386292,311.730774 
	C612.784790,326.873077 611.429749,342.204498 612.231995,357.757751 
	C612.480164,362.568451 612.173096,367.388763 611.543091,372.209839 
	C611.127686,375.388550 610.683655,378.738159 611.715210,382.257996 
	C614.574402,381.668701 616.295349,379.774048 618.028564,378.134003 
	C632.564758,364.379242 644.346680,348.570618 653.300354,330.646606 
	C654.544067,328.156891 654.239380,325.900299 653.568726,323.441620 
	C648.491821,304.830902 639.817444,288.112213 627.257812,273.454865 
	C625.157654,271.003937 623.159058,268.332611 619.366760,266.533020 
	C619.424805,281.804474 618.854065,296.397980 616.386292,311.730774 
M345.364166,449.832733 
	C358.759155,439.381165 372.138611,428.909637 385.563019,418.495972 
	C388.040405,416.574158 389.623108,414.822510 387.479004,411.480652 
	C382.782990,404.161346 379.222443,396.264191 376.618439,387.960968 
	C375.667603,384.929108 374.168365,384.111664 371.068756,385.461731 
	C356.874634,391.644257 342.624603,397.700165 328.346649,403.687164 
	C325.007690,405.087250 323.945984,407.314056 324.430450,410.763702 
	C326.118958,422.787354 328.316345,434.697296 331.841858,446.336426 
	C335.242615,457.563660 335.427429,457.627014 345.364166,449.832733 
M388.757996,280.260834 
	C383.807068,283.990051 379.494873,288.359558 375.643799,293.209167 
	C363.193817,308.887299 355.574524,326.827972 350.824432,346.112549 
	C350.346039,348.054779 349.619537,350.572784 352.743256,350.616577 
	C357.626862,350.685059 362.824402,351.575958 366.906647,347.656586 
	C368.447144,346.177521 370.067993,346.091431 371.933289,346.947723 
	C378.808075,350.103607 385.970459,348.574127 393.040833,348.086945 
	C396.280334,347.863739 397.157410,345.913086 396.276459,342.818390 
	C395.275909,339.303467 394.475098,335.725800 393.725098,332.146545 
	C391.516052,321.604095 392.578796,310.971741 392.581268,300.337891 
	C392.582397,295.374512 392.718994,291.572601 396.307678,287.522797 
	C404.105743,278.722748 406.600952,278.813110 411.770355,289.691467 
	C412.055267,290.291077 412.350006,290.908417 412.491241,291.550293 
	C413.579590,296.495392 415.490936,300.881439 419.122681,304.676361 
	C421.503845,307.164520 422.764587,310.631897 422.587189,314.318359 
	C422.510345,315.914581 422.689087,317.335907 424.422394,318.006439 
	C427.915863,319.357910 431.275787,321.232910 435.993561,321.087616 
	C433.809601,314.371460 431.525726,308.463593 425.723633,304.665771 
	C422.175659,302.343414 419.020172,299.693329 417.574860,295.527618 
	C415.579285,289.775848 412.840363,284.551483 407.876740,280.717438 
	C405.712646,279.045837 405.690857,277.130188 407.940155,275.378876 
	C409.251556,274.357788 410.584503,273.363770 411.880981,272.324188 
	C416.405396,268.696350 422.091888,267.044769 427.099854,263.781738 
	C425.502472,261.866974 423.944641,262.529175 422.312256,262.779144 
	C419.046387,263.279205 416.745209,265.850555 413.752747,266.687225 
	C404.595642,269.247284 396.821533,274.259674 388.757996,280.260834 
M400.133850,413.350311 
	C401.946198,415.524963 403.603088,417.856201 405.603180,419.841766 
	C409.803894,424.012085 416.618164,424.322998 419.781494,420.240143 
	C424.262024,414.457214 429.545563,409.815887 436.154510,406.689178 
	C440.314026,404.721313 440.739380,401.803436 438.311371,398.175812 
	C436.365417,395.268402 434.279480,392.447357 432.464417,389.461090 
	C427.211182,380.818054 420.895325,372.627472 420.500061,361.855408 
	C420.402649,359.200195 418.600464,358.252747 416.162201,357.957611 
	C407.689789,356.932037 399.181915,356.962555 390.732452,357.745728 
	C384.792084,358.296326 381.868500,362.458618 382.129883,368.382111 
	C382.322632,372.749969 383.579987,376.839569 384.746307,381.023193 
	C386.440094,387.098877 391.595184,391.508850 392.743561,397.528778 
	C393.851990,403.339050 396.312195,408.189789 400.133850,413.350311 
M616.822388,391.333649 
	C613.529236,395.076874 608.178955,396.895538 607.344116,402.952789 
	C606.254456,410.859344 603.934631,418.535980 601.742065,426.218750 
	C601.189636,428.154388 599.305054,430.467407 601.324646,432.240601 
	C603.067139,433.770508 605.462646,432.714874 607.528015,432.096100 
	C619.894165,428.391479 631.482178,423.084106 642.191589,415.794952 
	C645.667603,413.429047 647.961243,410.549774 649.522461,406.692810 
	C655.211853,392.637085 657.759277,377.948059 658.597595,362.918488 
	C658.924683,357.055023 658.787598,351.166321 656.943665,344.633606 
	C645.833496,362.546265 633.297058,378.188660 616.822388,391.333649 
M585.877930,442.407562 
	C593.500488,424.698364 597.668152,406.057190 600.382263,387.083405 
	C601.055786,382.375336 601.843201,377.355072 599.495117,371.877716 
	C598.744873,373.273895 598.312134,373.937012 598.013550,374.655884 
	C593.465149,385.608032 587.542114,395.832092 581.232666,405.822388 
	C568.096497,426.622192 552.430542,445.318329 534.145996,461.809174 
	C532.797791,463.025116 530.183594,464.340515 531.966187,466.590698 
	C534.004883,469.164032 535.943481,466.772827 537.383362,465.417816 
	C542.955383,460.174164 548.339966,454.731934 553.870544,449.443359 
	C555.235657,448.137939 556.170593,446.064880 558.984924,446.206085 
	C561.399780,452.031036 561.250122,458.408264 562.155212,464.570282 
	C562.574158,467.422516 561.434204,471.178436 565.244812,472.196869 
	C569.442810,473.318878 570.690002,469.305908 572.645813,466.770844 
	C573.714478,465.385651 573.909912,463.750183 573.948730,462.049225 
	C574.005615,459.556976 574.319641,457.108765 576.057129,454.526855 
	C579.346436,456.636139 580.398987,453.994141 581.545105,451.692047 
	C582.953552,448.862854 584.240295,445.973083 585.877930,442.407562 
M358.288269,451.818573 
	C351.035400,457.431335 350.972382,457.455536 354.274048,466.046906 
	C356.303345,471.327393 358.575806,476.514130 360.710541,481.754578 
	C362.055695,485.056793 364.215637,487.033020 367.912140,487.875824 
	C382.842224,491.279724 397.854919,494.226715 412.991241,496.509857 
	C415.251251,496.850769 417.844299,497.691071 420.304291,495.787262 
	C418.706970,492.130402 415.672852,489.382446 415.100464,485.462921 
	C414.542816,481.644073 412.272797,479.497223 408.790161,477.848877 
	C393.911987,470.806976 380.457031,461.633820 369.012329,449.736969 
	C366.408386,447.030151 364.315369,446.448425 361.602020,449.234222 
	C360.796387,450.061462 359.778290,450.681763 358.288269,451.818573 
M359.246674,360.046844 
	C344.344635,360.579987 330.122375,364.890045 315.661896,367.879883 
	C313.448975,368.337433 312.087769,369.369049 312.106140,371.866638 
	C312.163666,379.682465 312.108765,387.499084 312.161011,395.314972 
	C312.182678,398.557770 313.975098,399.459625 316.782867,398.260254 
	C334.516541,390.685028 352.231506,383.066040 369.939178,375.430206 
	C371.332672,374.829285 372.380890,373.932159 372.651184,372.172211 
	C374.218201,361.970337 370.794983,358.415924 360.641296,359.844879 
	C360.476654,359.868042 360.313354,359.900543 359.246674,360.046844 
M349.010315,320.826050 
	C355.056885,304.324341 365.558472,290.578278 376.950256,277.223511 
	C373.781738,275.556091 372.085419,277.354736 370.303009,278.334198 
	C351.403015,288.719971 340.914581,305.790924 333.286804,325.109436 
	C331.021179,330.847412 329.058624,336.707123 328.288300,342.834137 
	C327.529175,348.872101 330.529297,350.905396 335.937531,348.577789 
	C339.247772,347.153137 341.234772,344.971680 342.270111,341.459351 
	C344.244843,334.760284 346.583588,328.168579 349.010315,320.826050 
M476.752563,414.568298 
	C468.563873,409.271179 460.333069,409.986084 453.799805,417.029266 
	C446.801056,424.574341 444.533844,433.805084 445.613922,443.858246 
	C446.458557,451.719727 449.523590,458.560394 455.568176,463.957397 
	C463.522156,471.059143 478.082458,467.968750 480.282349,459.384583 
	C474.514832,460.261536 468.863953,460.621521 464.265015,456.523438 
	C459.689575,452.446320 457.384613,447.202850 456.784851,441.184265 
	C456.253052,435.847443 457.536438,430.774017 460.447510,426.426422 
	C464.768311,419.973572 471.358063,417.695953 479.346588,419.129395 
	C478.890289,417.412933 478.869751,416.883209 478.620117,416.504486 
	C478.260162,415.958313 477.733826,415.521790 476.752563,414.568298 
M513.143677,487.655182 
	C520.238525,489.379974 523.983337,483.949158 528.430481,480.281921 
	C530.665588,478.438812 529.095642,476.688416 527.166260,475.599213 
	C517.195862,469.970825 507.207916,464.373169 497.196716,458.817810 
	C495.746857,458.013275 494.110779,457.226379 492.927826,459.352325 
	C490.044708,464.533783 485.604767,468.885529 484.465424,474.990082 
	C484.034454,477.299225 482.158325,479.757904 484.660004,481.942993 
	C486.975159,483.965088 489.748718,484.492859 492.580078,483.390686 
	C495.180695,482.378326 497.717041,482.560333 500.395538,482.763184 
	C504.919342,483.105774 508.352692,485.970398 513.143677,487.655182 
M631.667053,433.619171 
	C625.276367,435.860962 619.031006,439.290466 612.464294,440.093994 
	C599.319763,441.702423 591.126526,448.173706 587.393860,460.696594 
	C586.529053,463.597839 583.765686,465.807404 583.930176,469.424225 
	C584.875305,469.424225 585.542175,469.559021 586.127380,469.397583 
	C587.563354,469.001404 589.022827,468.599213 590.365967,467.971039 
	C605.468567,460.907684 618.569641,451.142853 629.578979,438.618347 
	C630.721985,437.317932 632.427185,436.178589 631.667053,433.619171 
M398.886108,426.659729 
	C397.457336,425.474365 396.730133,423.056732 394.090485,424.019928 
	C390.511108,425.325897 384.382507,433.697052 384.196838,437.591614 
	C383.741272,447.147369 388.101959,452.192200 398.761230,454.440857 
	C406.674438,456.110229 408.881073,454.580139 409.981903,446.729309 
	C410.142731,445.582275 410.459686,444.450989 410.777740,443.333344 
	C411.583984,440.500153 410.984375,438.278992 408.644684,436.238220 
	C405.390442,433.399658 402.445190,430.206818 398.886108,426.659729 
M536.587463,512.749939 
	C537.547180,515.957275 538.784424,519.054565 540.733154,521.790161 
	C544.651917,527.291260 549.906799,529.887207 556.706970,528.656555 
	C558.628784,528.308777 561.160828,527.964172 561.393982,525.657715 
	C561.660095,523.025452 558.958069,523.559021 557.337219,523.098877 
	C549.760498,520.947815 544.717224,513.956360 544.586304,505.376404 
	C544.433594,495.372162 548.540894,489.059326 556.713440,486.376770 
	C558.427002,485.814301 560.934998,486.294617 561.518494,483.646362 
	C556.355347,478.391693 547.866760,479.327789 542.392456,485.701416 
	C535.776794,493.403748 534.741638,502.369446 536.587463,512.749939 
M416.395966,321.948639 
	C414.480286,320.073425 413.995087,317.654419 413.788391,315.123779 
	C413.450287,310.984619 413.278564,306.821442 412.703583,302.715027 
	C412.168213,298.891693 410.842896,295.365509 406.485901,293.338501 
	C403.170898,298.355225 400.796631,303.252991 403.694427,309.135956 
	C406.999695,315.846039 410.253113,322.589630 413.821014,329.160156 
	C417.269501,335.510773 432.135742,342.648773 439.178131,341.685394 
	C441.044800,341.429993 442.234009,340.391907 442.653351,338.597839 
	C443.438416,335.239380 441.912201,333.434998 438.787903,332.168610 
	C431.412262,329.178986 423.640717,327.043976 416.395966,321.948639 
M451.704620,535.184448 
	C451.220642,537.453918 450.635651,539.708252 450.290436,541.998596 
	C450.081757,543.382812 450.515930,544.702820 452.101105,545.142273 
	C453.554596,545.545349 454.214630,544.468384 454.797791,543.451965 
	C455.375732,542.444580 455.938263,541.409424 456.344330,540.325378 
	C461.010681,527.867676 465.666229,515.405823 470.259155,502.920959 
	C470.737854,501.619812 471.488007,500.098206 469.963135,498.856934 
	C463.528473,502.407898 458.968445,508.366608 457.381683,514.711304 
	C455.728668,521.320801 453.816772,527.865540 451.704620,535.184448 
M456.139771,489.285950 
	C457.618958,490.555908 458.601624,492.436951 461.158966,493.172699 
	C465.006073,488.190735 472.103241,485.581879 473.214600,477.422028 
	C467.063416,477.112793 461.200317,478.093445 456.131500,475.043243 
	C451.775452,472.421997 448.750519,474.184570 445.588440,477.510040 
	C449.047485,481.381683 452.354309,485.082947 456.139771,489.285950 
M439.610687,468.546112 
	C444.436310,467.735474 444.000244,465.277466 442.010162,461.823364 
	C434.324188,448.482941 433.872559,434.710999 439.939087,420.635406 
	C440.495087,419.345398 441.720184,418.111084 440.525635,416.295715 
	C435.985321,416.578156 433.157196,418.915436 432.581848,423.470642 
	C431.156281,434.757568 430.765411,446.062195 433.856323,457.157471 
	C434.954773,461.100464 435.758270,465.304565 439.610687,468.546112 
M466.291534,441.156769 
	C466.324219,443.568146 467.185577,445.692291 468.636444,447.569611 
	C471.419739,451.171112 475.123871,451.645538 477.899689,448.463593 
	C480.085022,445.958588 481.554657,442.936249 481.591339,439.470428 
	C481.648285,434.095367 477.960999,428.678131 474.166962,428.452240 
	C470.198059,428.215912 466.625854,432.896301 466.248993,438.841125 
	C466.217651,439.335266 466.254272,439.833771 466.291534,441.156769 
M514.487549,502.671844 
	C513.707092,500.510925 511.728241,500.577087 509.966858,500.239838 
	C502.955505,498.897308 495.945435,497.548157 488.932281,496.214966 
	C482.799927,495.049194 481.174896,496.564911 481.505646,503.356812 
	C491.440765,505.277679 501.642914,504.259827 511.663605,505.531494 
	C513.122559,505.716644 514.251221,505.019226 514.487549,502.671844 
M446.029541,301.683105 
	C444.743134,301.106628 443.816620,299.668365 442.123535,299.986542 
	C441.296539,302.000671 441.374054,303.880463 442.453217,305.733063 
	C445.802246,311.482300 448.122986,317.682037 450.560425,323.849182 
	C452.886047,329.733490 458.634216,330.535217 464.720612,333.371490 
	C462.490540,328.180237 457.925201,326.977417 456.783752,322.792633 
	C455.746948,318.991425 453.871185,315.408936 452.257080,311.778168 
	C450.728699,308.340210 449.983368,304.421539 446.029541,301.683105 
M605.895874,548.527100 
	C605.393738,555.804077 604.829712,563.077637 604.433167,570.360352 
	C604.334473,572.171570 603.353088,574.889099 606.165894,575.305664 
	C608.474609,575.647522 608.872864,573.042358 609.214478,571.409241 
	C610.807861,563.790771 612.196350,556.128967 613.614014,548.474487 
	C614.149292,545.584167 613.088928,543.378845 610.088013,542.950500 
	C606.642151,542.458740 605.962097,544.899658 605.895874,548.527100 
M565.884949,506.131470 
	C565.865479,499.814301 563.445679,495.524353 559.928223,495.570892 
	C556.981323,495.609894 554.163269,500.302856 554.282104,505.024658 
	C554.373596,508.658234 555.670349,511.967010 559.444824,512.560059 
	C563.114441,513.136658 565.097290,510.452393 565.884949,506.131470 
M578.556458,528.104736 
	C577.248962,526.873413 576.083130,526.205933 574.239807,527.578552 
	C567.691956,532.454468 567.825378,535.879089 574.744141,540.108765 
	C578.321899,542.295959 581.390259,540.864563 583.779663,538.567505 
	C586.428894,536.020569 583.994385,533.733215 582.241516,531.734131 
	C581.256226,530.610413 580.130737,529.609741 578.556458,528.104736 
M405.346313,341.129333 
	C407.787231,347.963379 412.566528,350.061127 419.562775,347.171356 
	C417.864319,343.301666 413.834320,342.390808 410.827789,340.347351 
	C407.518188,338.097931 406.889648,333.784149 402.816559,330.646912 
	C403.777832,334.649597 404.463959,337.506500 405.346313,341.129333 
M442.199127,489.280670 
	C437.050598,482.523895 437.050598,482.523895 428.415222,486.927887 
	C429.675476,489.592804 431.774353,491.290161 434.565338,490.601624 
	C437.156036,489.962433 439.740021,490.338379 442.199127,489.280670 
M496.963104,527.198914 
	C496.267944,524.774170 497.921875,521.544067 494.619202,519.797974 
	C492.119415,525.686157 493.278412,531.223816 497.226379,532.849854 
	C498.131958,531.198608 497.208557,529.610291 496.963104,527.198914 
M439.928009,579.064270 
	C443.668915,576.739075 446.390167,568.228333 444.207123,563.599609 
	C442.271729,568.924255 440.454620,573.591736 439.928009,579.064270 
M385.262726,570.203979 
	C384.497620,567.717957 384.585419,564.830750 381.805695,562.608215 
	C381.551483,567.807861 381.187225,572.387024 385.215515,576.336304 
	C386.254883,574.160217 385.754120,572.556274 385.262726,570.203979 
M519.826416,556.786987 
	C518.674744,555.553833 517.924744,553.693237 515.427551,553.926392 
	C515.642517,557.356873 517.654602,559.266418 519.729614,561.252869 
	C521.273987,559.828003 520.741516,558.593384 519.826416,556.786987 
z"/>


</svg>